<?xml version="1.0" encoding="UTF-8" standalone="no"?> <svg width="512" height="512" viewBox="0 0 512 512" fill="none" xmlns="http://www.w3.org/2000/svg">
<path d="M32 128C32 74.9807 74.9807 32 128 32H384C437.019 32 480 74.9807 480 128V384C480 437.019 437.019 480 384 480H128C74.9807 480 32 437.019 32 384V128Z" fill="#597DDC"/>
<path d="M32 112C32 67.8172 67.8172 32 112 32H368C412.183 32 448 67.8172 448 112V368C448 412.183 412.183 448 368 448H112C67.8172 448 32 412.183 32 368V112Z" fill="#6EBAFF"/>
<path fill-rule="evenodd" clip-rule="evenodd" d="M24 128C24 70.5624 70.5624 24 128 24H384C441.438 24 488 70.5624 488 128V384C488 441.438 441.438 488 384 488H128C70.5624 488 24 441.438 24 384V128ZM128 40C79.3989 40 40 79.3989 40 128V384C40 432.601 79.3989 472 128 472H384C432.601 472 472 432.601 472 384V128C472 79.3989 432.601 40 384 40H128Z" fill="black"/>
<path fill-rule="evenodd" clip-rule="evenodd" d="M140 128C140 116.954 148.954 108 160 108H352C363.046 108 372 116.954 372 128C372 139.046 363.046 148 352 148H276V384C276 395.046 267.046 404 256 404C244.954 404 236 395.046 236 384V148H160C148.954 148 140 139.046 140 128Z" fill="white"/>
<path fill-rule="evenodd" clip-rule="evenodd" d="M132 128C132 112.536 144.536 100 160 100H352C367.464 100 380 112.536 380 128C380 143.464 367.464 156 352 156H284V384C284 399.464 271.464 412 256 412C240.536 412 228 399.464 228 384V156H160C144.536 156 132 143.464 132 128ZM160 116C153.373 116 148 121.373 148 128C148 134.627 153.373 140 160 140H236C240.418 140 244 143.582 244 148V384C244 390.627 249.373 396 256 396C262.627 396 268 390.627 268 384V148C268 143.582 271.582 140 276 140H352C358.627 140 364 134.627 364 128C364 121.373 358.627 116 352 116H160Z" fill="black"/>
</svg>
